<svg width="25" height="21" viewBox="0 0 25 21" fill="none" xmlns="http://www.w3.org/2000/svg">
<path d="M2.34961 6.75195H21.6504V5.93457C21.6504 4.12402 20.7275 3.20996 18.8906 3.20996H5.10938C3.27246 3.20996 2.34961 4.12402 2.34961 5.93457V6.75195ZM2.34961 15.2773C2.34961 17.0879 3.27246 17.9932 5.10938 17.9932H18.8906C20.7275 17.9932 21.6504 17.0879 21.6504 15.2773V8.74707H2.34961V15.2773ZM5.28516 13.1328V11.5068C5.28516 11.0146 5.62793 10.6631 6.14648 10.6631H8.2998C8.81836 10.6631 9.16113 11.0146 9.16113 11.5068V13.1328C9.16113 13.6338 8.81836 13.9766 8.2998 13.9766H6.14648C5.62793 13.9766 5.28516 13.6338 5.28516 13.1328Z" fill="#2B47FC"/>
</svg>
