<svg width="22" height="21" viewBox="0 0 22 21" fill="none" xmlns="http://www.w3.org/2000/svg">
<path d="M11.0044 19.6191C15.8999 19.6191 19.9692 15.5586 19.9692 10.6543C19.9692 5.75879 15.8911 1.68945 10.9956 1.68945C6.09131 1.68945 2.03955 5.75879 2.03955 10.6543C2.03955 15.5586 6.1001 19.6191 11.0044 19.6191ZM10.9956 16.042C10.7407 16.042 10.5386 15.8574 10.5386 15.585V14.917C9.28174 14.7852 8.23584 14.0996 7.96338 13.0098C7.9458 12.9131 7.91943 12.8252 7.91943 12.7197C7.91943 12.3945 8.15674 12.166 8.47314 12.166C8.75439 12.166 8.94775 12.3154 9.05322 12.6406C9.21143 13.2646 9.70361 13.7305 10.5386 13.8535V11.0762L10.4771 11.0586C8.9126 10.6807 8.104 9.96875 8.104 8.76465C8.104 7.48145 9.11475 6.59375 10.5386 6.42676V5.78516C10.5386 5.5127 10.7319 5.32812 10.9956 5.32812C11.2505 5.32812 11.4526 5.52148 11.4526 5.78516V6.42676C12.6567 6.56738 13.6147 7.27051 13.8608 8.29004C13.8872 8.38672 13.9048 8.4834 13.9048 8.58008C13.9048 8.90527 13.6763 9.13379 13.3511 9.13379C13.0522 9.13379 12.8677 8.95801 12.771 8.66797C12.5864 8.03516 12.1206 7.63965 11.4526 7.5166V10.1445L11.5669 10.1621C13.1841 10.5488 14.0366 11.2344 14.0366 12.5088C14.0366 13.9414 12.9116 14.7852 11.4526 14.9258V15.585C11.4526 15.8486 11.2505 16.042 10.9956 16.042ZM10.5386 9.90723V7.5166C9.75635 7.65723 9.27295 8.14062 9.27295 8.71191C9.27295 9.25684 9.6333 9.66113 10.4683 9.88965L10.5386 9.90723ZM11.4526 11.2959V13.8535C12.4106 13.7393 12.8677 13.2471 12.8677 12.5791C12.8677 11.9639 12.5249 11.6299 11.5405 11.3311L11.4526 11.2959Z" fill="#2B47FC"/>
</svg>
