<svg width="22" height="22" viewBox="0 0 22 22" fill="none" xmlns="http://www.w3.org/2000/svg">
<path d="M10.4551 19.9707C11.7119 21.2275 13.0039 21.2451 14.2959 19.9619L19.8594 14.4072C21.1426 13.124 21.125 11.8232 19.8682 10.5664L11.2725 1.98828C10.6133 1.3291 10.2441 1.28516 9.3125 1.28516H5.97266C5.04102 1.28516 4.75098 1.51367 4.0918 2.17285L2.07031 4.19434C1.40234 4.8623 1.18262 5.15234 1.18262 6.08398V9.42383C1.18262 10.3467 1.21777 10.7246 1.88574 11.3838L10.4551 19.9707ZM7.44922 8.31641C6.76367 8.31641 6.24512 7.78027 6.24512 7.1123C6.24512 6.43555 6.76367 5.9082 7.44922 5.9082C8.13477 5.9082 8.65332 6.43555 8.65332 7.1123C8.65332 7.78027 8.13477 8.31641 7.44922 8.31641Z" fill="#2B47FC"/>
</svg>
