<?xml version="1.0" encoding="UTF-8"?>
<svg width="60px" height="59px" viewBox="0 0 60 59" version="1.1" xmlns="http://www.w3.org/2000/svg" xmlns:xlink="http://www.w3.org/1999/xlink">
    <!-- Generator: Sketch 60.1 (88133) - https://sketch.com -->
    <title>White</title>
    <desc>Created with Sketch.</desc>
    <defs>
        <path d="M60,17.24409 L60,41.75591 C60,51.279556 52.27956,59 42.75591,59 C37.701,59 33.1541,56.82499 30,53.359775 C26.8459,56.82499 22.299,59 17.24409,59 C7.720444,59 0,51.279556 0,41.75591 L0,17.24409 C0,7.72044 7.720444,0 17.24409,0 C22.299,0 26.8459,2.17501 30,5.64023 C33.1541,2.17501 37.701,0 42.75591,0 C52.27956,0 60,7.72044 60,17.24409 Z" id="path-1"></path>
    </defs>
    <g id="Page-1" stroke="none" stroke-width="1" fill="none" fill-rule="evenodd">
        <g id="Welcome" transform="translate(-52.000000, -64.000000)">
            <g id="Logo" transform="translate(52.000000, 64.000000)">
                <g id="White">
                    <mask id="mask-2" fill="white">
                        <use xlink:href="#path-1"></use>
                    </mask>
                    <g id="Clip-2"></g>
                    <path d="M30,5.640225 C33.1541,2.17501 37.701,0 42.75591,0 C52.27956,0 60,7.720444 60,17.24409 L60,41.75591 C60,51.27956 52.27956,59 42.75591,59 C37.701,59 33.1541,56.82499 30,53.35977 C26.8459,56.82499 22.299,59 17.24409,59 C7.720444,59 0,51.27956 0,41.75591 L0,17.24409 C0,7.720444 7.720444,0 17.24409,0 C22.299,0 26.8459,2.17501 30,5.640225 Z" id="Stroke-1" stroke="#FFFFFF" stroke-width="27.40157" mask="url(#mask-2)"></path>
                </g>
            </g>
        </g>
    </g>
</svg>