<svg width="16" height="4" viewBox="0 0 16 4" fill="none" xmlns="http://www.w3.org/2000/svg">
<g clip-path="url(#clip0)">
<path d="M3.53906 2.36719C3.53906 1.5 2.84375 0.804688 1.96094 0.804688C1.09375 0.804688 0.398438 1.5 0.398438 2.36719C0.398438 3.23438 1.09375 3.92969 1.96094 3.92969C2.84375 3.92969 3.53906 3.23438 3.53906 2.36719ZM9.32031 2.36719C9.32031 1.5 8.63281 0.804688 7.76562 0.804688C6.89844 0.804688 6.21094 1.5 6.21094 2.36719C6.21094 3.23438 6.89844 3.92969 7.76562 3.92969C8.63281 3.92969 9.32031 3.23438 9.32031 2.36719ZM15.1328 2.36719C15.1328 1.5 14.4297 0.804688 13.5703 0.804688C12.6875 0.804688 11.9922 1.5 11.9922 2.36719C11.9922 3.23438 12.6875 3.92969 13.5703 3.92969C14.4297 3.92969 15.1328 3.23438 15.1328 2.36719Z" fill="#3A3A3A"/>
</g>
<defs>
<clipPath id="clip0">
<rect width="16" height="4" fill="white"/>
</clipPath>
</defs>
</svg>
