<svg width="24" height="24" viewBox="0 0 24 24" fill="none" xmlns="http://www.w3.org/2000/svg">
<path d="M2.49023 11.7344C2.49023 11.9785 2.59766 12.2031 2.79297 12.3887L9.27734 18.873C9.48242 19.0586 9.6875 19.1367 9.91211 19.1367C10.4004 19.1367 10.7715 18.7852 10.7715 18.2969C10.7715 18.0723 10.6836 17.8379 10.5273 17.6816L8.34961 15.4551L5.04883 12.457L7.42188 12.6133H19.7656C20.2734 12.6133 20.625 12.2422 20.625 11.7344C20.625 11.2266 20.2734 10.8652 19.7656 10.8652H7.42188L5.05859 11.0117L8.34961 8.01367L10.5273 5.79688C10.6934 5.63086 10.7715 5.40625 10.7715 5.17188C10.7715 4.69336 10.4004 4.33203 9.91211 4.33203C9.6875 4.33203 9.47266 4.41992 9.25781 4.625L2.79297 11.0801C2.59766 11.2754 2.49023 11.5 2.49023 11.7344Z" fill="white"/>
</svg>
